<?xml version="1.0" encoding="UTF-8"?>
<svg id="Layer_1" data-name="Layer 1" xmlns="http://www.w3.org/2000/svg" viewBox="0 0 1038.23 684.24">
  <defs>
    <style>
      .cls-1 {
        fill: #ed1c24;
      }

      .cls-2 {
        fill: #fdcd07;
      }
    </style>
  </defs>
  <path class="cls-1" d="M245.08,0h272.35c29.14,0,56.53,7.48,82.15,22.42,25.62,14.95,45.99,35,61.12,60.15,15.13,25.16,22.7,52.03,22.7,80.62,0,33.05-7.1,62.1-21.3,87.16-14.2,25.06-33.46,44.65-57.78,58.76l51.8,152.05h-21.16l-49.57-142.58c-7.43,2.97-13.09,5.01-16.99,6.13l46.51,136.45h-21.16l-45.39-131.72c-1.67.37-7.61,1.02-17.82,1.95l43.16,129.77h-21.16l-42.61-129.21h-18.1l40.66,129.21h-21.16l-40.93-129.21h-73.8v-20.05h120.86c25.99,0,50.12-6.4,72.4-19.22,22.28-12.81,40.1-30.68,53.47-53.61,13.37-22.93,20.05-48.22,20.05-75.89,0-25.06-6.64-48.59-19.91-70.59-13.28-22-31.15-39.59-53.61-52.77-22.47-13.18-46.6-19.77-72.4-19.77h-252.3M285.18,40.1h232.25c22.09,0,42.84,5.67,62.24,16.99,19.4,11.33,34.85,26.5,46.37,45.53,11.51,19.03,17.27,39.22,17.27,60.57,0,36.58-12.39,67.16-37.18,91.76-24.78,24.6-54.35,36.9-88.69,36.9h-120.86v-20.05h120.86c28.96,0,53.84-10.16,74.63-30.49,20.79-20.33,31.19-46.37,31.19-78.11,0-27.29-10.63-51.28-31.89-71.99-21.26-20.7-45.9-31.05-73.93-31.05h-212.2M325.28,80.2h192.15c22.65,0,42.61,8.4,59.87,25.2,17.26,16.8,25.9,36.06,25.9,57.78,0,26.73-8.35,48.18-25.06,64.33-16.71,16.15-36.95,24.23-60.71,24.23h-120.86v-20.05h120.86c18.38,0,33.93-5.94,46.64-17.82,12.71-11.88,19.07-28.77,19.07-50.68,0-16.15-6.68-30.68-20.05-43.58-13.37-12.9-28.59-19.35-45.67-19.35h-172.1M365.38,120.3h152.05c12.43,0,23.16,4.22,32.16,12.67,9,8.45,13.51,18.52,13.51,30.21,0,32.3-15.22,48.45-45.67,48.45h-120.86v-20.05h120.86c7.98,0,14.25-2.09,18.8-6.27,4.55-4.18,6.82-11.56,6.82-22.14,0-6.5-2.46-11.93-7.38-16.29-4.92-4.36-11-6.55-18.24-6.55h-132"/>
  <path class="cls-2" d="M821.09,413.39l-24.11-18.82c-11.25-8.78-17.08-18.03-17.49-27.75-.4-9.72,3.04-19.26,10.34-28.61,16.42-21.04,40.34-19.31,71.76,5.21,29.67,23.15,48.53,44.92,56.6,65.32l-20.24-.28c-6.58-12.66-22.81-29.08-48.67-49.26-12.57-9.8-22.09-15-28.57-15.59-6.48-.59-11.66,1.6-15.53,6.57-3.76,4.82-5.55,9.6-5.36,14.33.19,4.73,3.5,9.6,9.93,14.62l23.67,18.47c20.17,15.74,35.83,33.25,47,52.54,11.16,19.29,17.47,38.79,18.9,58.48,1.44,19.7-.99,39.31-7.3,58.84-6.3,19.53-16.3,38.06-29.98,55.6-10.95,14.03-23.29,25.78-37.05,35.28-13.75,9.49-28.72,16.39-44.89,20.69-16.17,4.31-32.85,5.93-50.01,4.88-17.16-1.05-35.13-5.44-53.92-13.16-18.78-7.72-37.16-18.59-55.13-32.62-28.2-22.01-51.25-46.86-69.13-74.57-17.88-27.7-29.01-55.61-33.41-83.73l20.07.5c4.42,25.07,14.92,50.02,31.52,74.85,16.6,24.82,37.69,47.22,63.26,67.17,20.02,15.62,40.36,26.85,61.01,33.68,20.65,6.83,40.14,9.28,58.45,7.35,18.32-1.93,35.48-7.35,51.48-16.26,16-8.91,29.99-21.03,41.96-36.38,16.08-20.61,26.4-42.42,30.95-65.43,4.56-23.02,2.2-46.2-7.09-69.55-9.29-23.35-25.62-44.15-49-62.4ZM796.46,444.95l-24.11-18.82c-21.34-16.65-32.72-35.05-34.15-55.21-1.43-20.16,5.04-39.45,19.41-57.86,14.6-18.71,33.07-28.74,55.42-30.11,22.35-1.37,46.75,8.27,73.2,28.9,18.56,14.48,34.16,30.12,46.8,46.92,12.64,16.8,21.01,33.26,25.11,49.4l-20.02-.1c-8.46-26.83-29.86-53.63-64.2-80.43-22.06-17.22-41.57-25.44-58.51-24.67-16.94.77-30.94,8.24-42,22.42-11.06,14.17-16.18,28.57-15.37,43.2.82,14.62,9.77,28.61,26.87,41.95l23.89,18.65c29.96,23.38,46.39,50.6,49.3,81.67,2.91,31.07-6.3,60.27-27.62,87.6-21.32,27.33-48.69,42.36-82.09,45.09-33.41,2.74-67.65-9.58-102.72-36.95-23.38-18.24-42.68-38.48-57.91-60.7-15.22-22.23-24.99-44.43-29.32-66.61l19.97-.28c4.35,19.14,13.47,38.49,27.37,58.03,13.9,19.55,31.3,37.47,52.2,53.78,30.84,24.06,60.16,35.07,87.97,33.03,27.82-2.05,50.73-14.62,68.74-37.7,17.91-22.94,25.78-47.19,23.62-72.74-2.16-25.55-16.1-48.36-41.83-68.43ZM771.83,476.52l-24.99-19.5c-29.66-23.15-45.79-50.31-48.38-81.49-2.59-31.18,6.6-60.21,27.58-87.1,21.32-27.33,48.69-42.36,82.09-45.09,33.41-2.74,67.64,9.58,102.71,36.95,23.38,18.25,42.73,38.51,58.02,60.79,15.3,22.28,25.11,44.51,29.42,66.69l-19.97.28c-4.34-19.14-13.5-38.51-27.48-58.12-13.97-19.6-31.41-37.55-52.31-53.87-30.83-24.06-60.15-35.07-87.97-33.03-27.81,2.05-50.72,14.61-68.74,37.7-17.79,22.8-25.67,46.98-23.64,72.55,2.03,25.57,15.76,48.27,41.19,68.11l24.77,19.33c21.34,16.65,32.78,34.98,34.32,55,1.55,20.02-4.98,39.37-19.58,58.08-14.59,18.7-33.06,28.74-55.42,30.11-22.35,1.37-46.75-8.26-73.2-28.9-18.56-14.48-34.12-30.09-46.68-46.83-12.56-16.74-20.9-33.18-25.01-49.31l20.02.1c8.46,26.83,29.79,53.58,63.98,80.26,22.07,17.22,41.58,25.44,58.51,24.67,16.94-.77,30.95-8.25,42-22.42,11.18-14.32,16.37-28.73,15.56-43.22-.8-14.5-9.74-28.41-26.84-41.75ZM732.99,471.6l26.52,20.7c11.25,8.78,17.11,17.99,17.57,27.65.47,9.65-3.01,19.22-10.42,28.72-16.42,21.04-40.34,19.31-71.76-5.21-29.52-23.03-48.31-44.75-56.37-65.15l20.24.27c6.58,12.66,22.73,29.03,48.45,49.1,12.57,9.81,22.1,15,28.57,15.59,6.48.59,11.66-1.61,15.53-6.57,3.88-4.97,5.73-9.75,5.56-14.35-.17-4.6-3.4-9.35-9.68-14.26l-27.18-21.21c-19.73-15.39-34.89-32.64-45.51-51.73-10.61-19.1-16.5-38.44-17.66-58.04-1.16-19.6,1.45-39.07,7.85-58.42,6.4-19.34,16.32-37.64,29.78-54.88,10.95-14.03,23.29-25.79,37.05-35.28,13.76-9.49,28.72-16.39,44.89-20.69,16.18-4.31,32.85-5.93,50.01-4.88,17.17,1.05,35.14,5.44,53.92,13.16,18.78,7.72,37.16,18.59,55.13,32.62,28.21,22.01,51.29,46.9,69.24,74.66,17.95,27.76,29.13,55.7,33.52,83.82l-20.07-.5c-4.41-25.08-14.95-50.06-31.63-74.94-16.67-24.89-37.79-47.3-63.37-67.26-20.02-15.62-40.36-26.85-61.01-33.68-20.65-6.83-40.13-9.28-58.45-7.35-18.32,1.93-35.47,7.35-51.48,16.26-16,8.91-29.99,21.03-41.97,36.38-15.85,20.31-26.09,41.88-30.74,64.71-4.64,22.83-2.59,45.88,6.16,69.17,8.75,23.29,24.53,43.83,47.32,61.61Z"/>
  <path class="cls-2" d="M168.14,475.78c-9.29,23.35-11.65,46.53-7.09,69.55,4.55,23.01,14.87,44.82,30.95,65.43,11.97,15.35,25.96,27.47,41.96,36.38,16,8.91,33.16,14.33,51.48,16.26,18.31,1.93,37.8-.52,58.45-7.35,20.65-6.83,40.99-18.05,61.01-33.68,25.57-19.95,46.66-42.35,63.26-67.17,16.6-24.83,27.11-49.78,31.52-74.85l20.07-.5c-4.4,28.12-15.53,56.03-33.41,83.73-17.88,27.71-40.92,52.57-69.13,74.57-17.97,14.03-36.35,24.9-55.13,32.62-18.78,7.72-36.75,12.11-53.92,13.16-17.17,1.05-33.84-.57-50.01-4.88-16.18-4.31-31.14-11.21-44.89-20.69-13.75-9.49-26.1-21.25-37.05-35.28-13.68-17.54-23.68-36.07-29.98-55.6-6.31-19.53-8.74-39.15-7.3-58.84,1.43-19.7,7.74-39.19,18.9-58.48,11.16-19.29,26.83-36.81,47-52.54l23.67-18.47c6.43-5.02,9.74-9.89,9.93-14.62.19-4.73-1.6-9.51-5.36-14.33-3.88-4.97-9.06-7.16-15.53-6.57-6.48.59-16,5.79-28.57,15.59-25.87,20.18-42.09,36.61-48.67,49.26l-20.24.28c8.06-20.4,26.93-42.17,56.6-65.32,31.42-24.51,55.34-26.25,71.76-5.21,7.3,9.35,10.74,18.89,10.34,28.61-.41,9.72-6.24,18.97-17.49,27.75l-24.11,18.82c-23.38,18.25-39.72,39.04-49,62.4ZM199.95,513.39c-2.16,25.55,5.71,49.8,23.62,72.74,18.01,23.09,40.93,35.66,68.74,37.7,27.81,2.04,57.13-8.97,87.97-33.03,20.9-16.31,38.29-34.23,52.2-53.78,13.9-19.55,23.02-38.89,27.37-58.03l19.97.28c-4.32,22.18-14.09,44.38-29.32,66.61-15.22,22.22-34.52,42.46-57.91,60.7-35.07,27.37-69.31,39.68-102.72,36.95-33.41-2.73-60.77-17.77-82.09-45.09-21.32-27.33-30.53-56.53-27.62-87.6,2.91-31.07,19.34-58.29,49.3-81.67l23.89-18.65c17.1-13.34,26.05-27.33,26.87-41.95.81-14.62-4.31-29.03-15.37-43.2-11.06-14.17-25.06-21.65-42-22.42-16.94-.77-36.45,7.46-58.51,24.67-34.34,26.8-55.75,53.61-64.2,80.43l-20.02.1c4.11-16.14,12.48-32.6,25.11-49.4,12.64-16.8,28.24-32.44,46.8-46.92,26.45-20.64,50.84-30.27,73.2-28.9,22.35,1.37,40.82,11.41,55.42,30.11,14.37,18.41,20.83,37.7,19.41,57.86-1.43,20.16-12.82,38.56-34.15,55.21l-24.11,18.82c-25.72,20.07-39.66,42.88-41.83,68.43ZM239.56,518.27c-.8,14.5,4.39,28.9,15.56,43.22,11.06,14.17,25.06,21.65,42,22.42,16.94.77,36.44-7.45,58.51-24.67,34.19-26.68,55.52-53.43,63.98-80.26l20.02-.1c-4.11,16.13-12.44,32.57-25.01,49.31-12.56,16.74-28.13,32.35-46.68,46.83-26.45,20.64-50.85,30.27-73.2,28.9-22.35-1.37-40.82-11.41-55.42-30.11-14.6-18.71-21.12-38.07-19.58-58.08,1.54-20.02,12.98-38.35,34.32-55l24.77-19.33c25.43-19.84,39.16-42.55,41.19-68.11,2.03-25.57-5.85-49.75-23.64-72.55-18.02-23.09-40.93-35.66-68.74-37.7-27.82-2.04-57.13,8.97-87.97,33.03-20.9,16.31-38.34,34.26-52.31,53.87-13.98,19.6-23.14,38.97-27.48,58.12l-19.97-.28c4.32-22.18,14.13-44.42,29.42-66.69,15.29-22.28,34.64-42.54,58.02-60.79,35.07-27.37,69.31-39.68,102.71-36.95,33.4,2.73,60.77,17.76,82.09,45.09,20.98,26.89,30.17,55.92,27.58,87.1-2.59,31.18-18.72,58.34-48.38,81.49l-24.99,19.5c-17.1,13.34-26.05,27.26-26.84,41.75ZM352.56,409.99c8.75-23.28,10.8-46.34,6.16-69.17-4.65-22.83-14.89-44.4-30.74-64.71-11.97-15.35-25.97-27.47-41.97-36.38-16.01-8.91-33.16-14.32-51.48-16.26-18.32-1.93-37.8.52-58.45,7.35-20.65,6.83-40.99,18.05-61.01,33.68-25.58,19.96-46.7,42.37-63.37,67.26-16.68,24.88-27.22,49.86-31.63,74.94l-20.07.5c4.39-28.12,15.56-56.06,33.52-83.82,17.95-27.76,41.03-52.65,69.24-74.66,17.97-14.03,36.35-24.89,55.13-32.62,18.78-7.72,36.76-12.11,53.92-13.16,17.16-1.05,33.83.58,50.01,4.88,16.17,4.31,31.14,11.2,44.89,20.69,13.75,9.49,26.1,21.25,37.05,35.28,13.45,17.24,23.38,35.54,29.78,54.88,6.4,19.35,9.01,38.82,7.85,58.42-1.17,19.6-7.05,38.95-17.66,58.04-10.61,19.09-25.78,36.34-45.51,51.73l-27.18,21.21c-6.29,4.91-9.52,9.66-9.68,14.26-.17,4.6,1.68,9.38,5.56,14.35,3.87,4.97,9.05,7.16,15.53,6.57,6.48-.59,16-5.78,28.57-15.59,25.72-20.07,41.87-36.43,48.45-49.1l20.24-.27c-8.06,20.4-26.85,42.12-56.37,65.15-31.42,24.52-55.34,26.25-71.76,5.21-7.41-9.5-10.89-19.07-10.42-28.72.46-9.65,6.32-18.87,17.57-27.65l26.52-20.7c22.79-17.79,38.57-38.33,47.32-61.61Z"/>
</svg>